<svg version="1.2" xmlns="http://www.w3.org/2000/svg" viewBox="0 0 100 100" width="100" height="100">
	<title>noun-profile-7539265</title>
	<style>
		.s0 { fill: #000000 } 
	</style>
	<path class="s0" d="m50 0c-27.6 0-50 22.4-50 50 0 14.3 6 27.1 15.6 36.2q0.1 0.1 0.2 0.2c8.9 8.4 21 13.6 34.2 13.6 13.1 0 25.1-5.1 34-13.4q0.2-0.1 0.4-0.3 0-0.1 0-0.1c9.6-9.1 15.6-21.9 15.6-36.2 0-27.6-22.4-50-50-50zm0 6.3c24.2 0 43.8 19.5 43.8 43.7 0 10.6-3.8 20.3-10.1 27.9-3.5-10.2-11.4-18.3-21.5-22 4.9-3.8 8.1-9.7 8.1-16.4 0-11.2-9.1-20.4-20.3-20.4-11.2 0-20.3 9.2-20.3 20.4 0 6.7 3.2 12.6 8.1 16.4-10.1 3.7-18 11.8-21.5 22-6.3-7.6-10.1-17.3-10.1-27.9 0-24.2 19.6-43.8 43.8-43.8zm0 19.1c7.8 0 14.1 6.3 14.1 14.2 0 7.9-6.3 14.2-14.1 14.2-7.8 0-14.1-6.3-14.1-14.2 0-7.9 6.3-14.2 14.1-14.2zm-0.7 34.7q0.3 0 0.7 0 0.3 0 0.7 0c13.8 0.3 25.1 10 28 23.1-7.7 6.6-17.7 10.6-28.7 10.6-11 0-21-4-28.7-10.6 2.9-13.1 14.2-22.8 28-23.1z"/>
</svg>